<svg viewbox="0 0 1024 1024" version="1.1" xmlns="http://www.w3.org/2000/svg" >
 <path d="M960.192 361.152l-104.288-246.048c-5.024-11.84-16.64-19.52-29.472-19.52L232.032 95.584c-11.68 0-22.4 6.368-28.032 16.576l-133.44 242.592c-6.24 11.328-5.056 25.248 2.976 35.328l417.952 525.376c6.08 7.648 15.296 12.096 25.056 12.096l0 0c9.76 0 18.976-4.48 25.056-12.096l414.176-521.952C963.072 384.352 964.736 371.936 960.192 361.152zM741.92 159.552l-226.336 182.592L308.256 159.552 741.92 159.552zM238.048 183.008 429.92 352 224 352c-17.664 0-32 14.336-32 32s14.336 32 32 32l256 0 0 382.24L136.896 366.912 238.048 183.008zM544 809.472 544 416l256 0c17.696 0 32-14.336 32-32s-14.304-32-32-32l-194.72 0 209.824-169.248 78.752 185.856L544 809.472z" />
 </svg>